<?xml version="1.0" encoding="UTF-8"?>
<!DOCTYPE svg PUBLIC "-//W3C//DTD SVG 1.1//EN" "http://www.w3.org/Graphics/SVG/1.1/DTD/svg11.dtd">
<!-- Creator: CorelDRAW 2018 (64 Bit Versão de avaliação) -->
<svg xmlns="http://www.w3.org/2000/svg" xml:space="preserve" width="130px" height="130px" version="1.1" style="shape-rendering:geometricPrecision; text-rendering:geometricPrecision; image-rendering:optimizeQuality; fill-rule:evenodd; clip-rule:evenodd"
viewBox="0 0 45.09 45.09"
 xmlns:xlink="http://www.w3.org/1999/xlink">
 <defs>
  <style type="text/css">
   <![CDATA[
    .str0 {stroke:#E6E6E6;stroke-width:0.82;stroke-miterlimit:22.9256}
    .fil1 {fill:#4D4D4D}
    .fil0 {fill:white}
   ]]>
  </style>
 </defs>
 <g id="Camada_x0020_1">
  <metadata id="CorelCorpID_0Corel-Layer"/>
  <circle class="fil0 str0" cx="22.55" cy="22.55" r="22.14"/>
  <path class="fil1" d="M31.15 18.82l0 -7.85 -2.43 0 0 1.56 -0.86 0 -0.78 0 -0.86 0 -0.78 0 -0.86 0 -0.78 0 -0.86 0 0 -1.56 -1.65 0 0 -1.57 -2.42 0 0 1.04 -1.64 0 0 1.57 -0.86 0 -0.78 0 -1.64 0 0 6.81c-0.73,0.65 -1.14,1.34 -1.14,1.96l0 14.91 19.47 0 0 -5.08 -0.78 0 0 1.17 -14.44 0 0 0.78 14.44 0 0 0.78 -17.91 0 0 -0.78 2.42 0 0 -0.78 -2.42 0 0 -10.99c0,-0.74 1.13,-1.85 2.99,-2.7 0.04,-0.02 0.07,-0.03 0.11,-0.05 0.01,-0.01 0.03,-0.01 0.04,-0.02 0.32,-0.14 0.66,-0.27 1.01,-0.39l0.01 0c0.51,-0.18 1.05,-0.33 1.6,-0.45l0 0c0.52,-0.11 1.06,-0.2 1.6,-0.25 0.39,-0.05 0.79,-0.07 1.18,-0.08 0.01,0 0.03,0 0.04,0 0.13,-0.01 0.25,-0.01 0.38,-0.01l0 0c0.12,0 0.25,0 0.37,0.01 0.01,0 0.03,0 0.04,0 0.4,0.01 0.79,0.03 1.19,0.08 0.53,0.05 1.07,0.14 1.6,0.25l0 0c0.54,0.12 1.08,0.27 1.59,0.45l0.01 0c0.35,0.12 0.69,0.25 1.01,0.39 0.02,0.01 0.03,0.01 0.04,0.02 0.04,0.02 0.07,0.03 0.11,0.05 1.86,0.85 2.99,1.96 2.99,2.69l0 8.1 0.78 0 0 -8.09c0,-0.63 -0.41,-1.32 -1.13,-1.97zm-1.65 -6.29l0 -0.78 0 0 0.86 0 0 6.47c-0.13,-0.09 -0.27,-0.17 -0.41,-0.26 0,0 0,0 0,0 -0.07,-0.04 -0.14,-0.08 -0.21,-0.12 0,-0.01 -0.01,-0.01 -0.02,-0.01 -0.07,-0.04 -0.14,-0.08 -0.22,-0.12l0 -5.18zm-1.64 0.78l0.86 0 0 4.02c-0.28,-0.13 -0.56,-0.24 -0.86,-0.35l0 -3.67zm-1.64 0l0.86 0 0 3.41c-0.28,-0.09 -0.57,-0.16 -0.86,-0.23l0 -3.18zm-1.64 0l0.86 0 0 3.01c-0.29,-0.05 -0.57,-0.09 -0.86,-0.13l0 -2.88zm-1.64 0l0.86 0 0 2.8c0,0 -0.01,0 -0.01,0 -0.13,-0.01 -0.27,-0.02 -0.41,-0.03 -0.01,0 -0.02,0 -0.03,0 -0.13,-0.01 -0.27,-0.01 -0.4,-0.01 0,0 -0.01,0 -0.01,-0.01l0 -2.75 0 0zm-1.65 -1.56l0.87 0 0 4.31c-0.01,0 -0.02,0.01 -0.02,0.01 -0.13,0 -0.27,0 -0.4,0.01 -0.01,0 -0.02,0 -0.03,0 -0.14,0.01 -0.27,0.02 -0.41,0.03 0,0 0,0 -0.01,0l0 -4.36zm-1.64 -1.31l0 -0.26 0.86 0 0 0.79 0 5.22c-0.29,0.04 -0.57,0.08 -0.86,0.13l0 -5.88zm-1.64 1.57l0 -0.78 0.86 0 0 5.26c-0.29,0.07 -0.58,0.14 -0.86,0.23l0 -4.71zm-1.64 0.78l0.86 0 0 4.19c-0.29,0.11 -0.58,0.22 -0.86,0.35l0 -4.54zm-1.64 0l0.86 0 0 4.92c-0.08,0.04 -0.15,0.08 -0.22,0.12 -0.01,0 -0.01,0 -0.02,0.01 -0.07,0.04 -0.14,0.08 -0.21,0.12 0,0 0,0 0,0 -0.14,0.09 -0.28,0.17 -0.41,0.26l0 -5.43zm16.77 22.12l-17.91 0 0 -0.78 17.91 0 0 0.78z"/>
 </g>
</svg>
