<?xml version="1.0" encoding="UTF-8"?>
<!DOCTYPE svg PUBLIC "-//W3C//DTD SVG 1.1//EN" "http://www.w3.org/Graphics/SVG/1.1/DTD/svg11.dtd">
<!-- Creator: CorelDRAW 2018 (64 Bit Versão de avaliação) -->
<svg xmlns="http://www.w3.org/2000/svg" xml:space="preserve" width="130px" height="130px" version="1.1" style="shape-rendering:geometricPrecision; text-rendering:geometricPrecision; image-rendering:optimizeQuality; fill-rule:evenodd; clip-rule:evenodd"
viewBox="0 0 16.16 16.16"
 xmlns:xlink="http://www.w3.org/1999/xlink">
 <defs>
  <style type="text/css">
   <![CDATA[
    .str0 {stroke:#E6E6E6;stroke-width:0.29;stroke-miterlimit:22.9256}
    .fil1 {fill:#4D4D4D}
    .fil0 {fill:white}
   ]]>
  </style>
 </defs>
 <g id="Camada_x0020_1">
  <metadata id="CorelCorpID_0Corel-Layer"/>
  <circle class="fil0 str0" cx="8.08" cy="8.08" r="7.93"/>
  <path class="fil1" d="M7.67 3.48l0 -0.14 -1.06 0 -1.15 0 -1.03 0 0 0.14c0,0.55 -0.09,0.82 -0.18,1.11 -0.1,0.29 -0.2,0.59 -0.2,1.19 0,0.6 0.1,0.9 0.2,1.19 0.09,0.29 0.18,0.56 0.18,1.11 0,0.55 -0.09,0.82 -0.18,1.1 -0.09,0.26 -0.17,0.53 -0.19,1l0.28 0.01c0.02,-0.43 0.09,-0.67 0.18,-0.92 0.09,-0.29 0.19,-0.59 0.19,-1.19 0,-0.6 -0.1,-0.9 -0.19,-1.19 -0.1,-0.29 -0.19,-0.56 -0.19,-1.11 0,-0.55 0.09,-0.82 0.19,-1.11 0.08,-0.27 0.17,-0.54 0.19,-1.05l0.75 0c-0.01,0.46 -0.1,0.71 -0.18,0.97 -0.1,0.29 -0.19,0.59 -0.19,1.19 0,0.6 0.09,0.9 0.19,1.19 0.09,0.29 0.18,0.56 0.18,1.11 0,0.55 -0.09,0.82 -0.18,1.1 -0.1,0.3 -0.19,0.6 -0.19,1.2 0,0.59 0.09,0.9 0.19,1.19 0.08,0.26 0.16,0.51 0.18,0.97l-0.75 0c-0.02,-0.51 -0.11,-0.79 -0.19,-1.06 -0.09,-0.25 -0.17,-0.49 -0.18,-0.93l-0.28 0.01c0.01,0.48 0.1,0.75 0.19,1.01 0.09,0.29 0.18,0.55 0.18,1.11l0 0.14 1.03 0 1.15 0 1.06 0 0 -0.14c0,-0.6 -0.09,-0.9 -0.19,-1.2 -0.09,-0.28 -0.18,-0.55 -0.18,-1.1 0,-0.55 0.09,-0.82 0.18,-1.11 0.1,-0.29 0.19,-0.59 0.19,-1.19 0,-0.6 -0.09,-0.9 -0.19,-1.19 -0.09,-0.29 -0.18,-0.56 -0.18,-1.11 0,-0.55 0.09,-0.82 0.18,-1.11 0.1,-0.29 0.19,-0.59 0.19,-1.19zm-1.93 9.06c-0.01,-0.51 -0.1,-0.79 -0.19,-1.06 -0.1,-0.28 -0.18,-0.55 -0.18,-1.1 0,-0.55 0.08,-0.82 0.18,-1.11 0.09,-0.29 0.19,-0.59 0.19,-1.19 0,-0.6 -0.1,-0.9 -0.19,-1.19 -0.1,-0.29 -0.18,-0.56 -0.18,-1.11 0,-0.55 0.08,-0.82 0.18,-1.11 0.09,-0.26 0.18,-0.54 0.19,-1.05l0.58 0c-0.01,0.46 -0.09,0.71 -0.18,0.97 -0.09,0.29 -0.19,0.59 -0.19,1.19 0,0.6 0.1,0.9 0.19,1.19 0.1,0.29 0.18,0.56 0.18,1.11 0,0.55 -0.08,0.82 -0.18,1.1 -0.09,0.3 -0.19,0.6 -0.19,1.2 0,0.59 0.1,0.9 0.19,1.19 0.09,0.26 0.17,0.51 0.18,0.97l-0.58 0zm1.47 -7.95c-0.09,0.29 -0.19,0.59 -0.19,1.19 0,0.6 0.1,0.9 0.19,1.19 0.1,0.29 0.18,0.56 0.18,1.11 0,0.55 -0.08,0.82 -0.18,1.1 -0.09,0.3 -0.19,0.6 -0.19,1.2 0,0.59 0.1,0.9 0.19,1.19 0.09,0.26 0.17,0.51 0.18,0.97l-0.79 0c-0.01,-0.51 -0.1,-0.79 -0.19,-1.06 -0.09,-0.28 -0.18,-0.55 -0.18,-1.1 0,-0.55 0.09,-0.82 0.18,-1.11 0.1,-0.29 0.2,-0.59 0.2,-1.19 0,-0.6 -0.1,-0.9 -0.2,-1.19 -0.09,-0.29 -0.18,-0.56 -0.18,-1.11 0,-0.55 0.09,-0.82 0.18,-1.11 0.09,-0.26 0.18,-0.54 0.19,-1.05l0.79 0c-0.01,0.46 -0.09,0.71 -0.18,0.97zm4.52 5.79c0,-0.55 0.09,-0.82 0.18,-1.11 0.1,-0.29 0.19,-0.59 0.19,-1.19 0,-0.6 -0.09,-0.9 -0.19,-1.19 -0.09,-0.29 -0.18,-0.56 -0.18,-1.11 0,-0.55 0.09,-0.82 0.18,-1.11 0.1,-0.29 0.19,-0.59 0.19,-1.19l0 -0.14 -1.06 0 -1.15 0 -1.03 0 0 0.14c0,0.55 -0.09,0.82 -0.18,1.11 -0.1,0.29 -0.2,0.59 -0.2,1.19 0,0.6 0.1,0.9 0.2,1.19 0.09,0.29 0.18,0.56 0.18,1.11 0,0.55 -0.09,0.82 -0.18,1.1 -0.09,0.26 -0.17,0.53 -0.19,1l0.28 0.01c0.02,-0.43 0.09,-0.67 0.17,-0.92 0.1,-0.29 0.2,-0.59 0.2,-1.19 0,-0.6 -0.1,-0.9 -0.2,-1.19 -0.09,-0.29 -0.18,-0.56 -0.18,-1.11 0,-0.55 0.09,-0.82 0.18,-1.11 0.09,-0.27 0.18,-0.54 0.2,-1.05l0.75 0c-0.02,0.46 -0.1,0.71 -0.18,0.97 -0.1,0.29 -0.19,0.59 -0.19,1.19 0,0.6 0.09,0.9 0.19,1.19 0.09,0.29 0.18,0.56 0.18,1.11 0,0.55 -0.09,0.82 -0.18,1.1 -0.1,0.3 -0.19,0.6 -0.19,1.2 0,0.59 0.09,0.9 0.19,1.19 0.08,0.26 0.16,0.51 0.18,0.97l-0.75 0c-0.02,-0.51 -0.11,-0.79 -0.2,-1.06 -0.08,-0.25 -0.16,-0.49 -0.17,-0.93l-0.28 0.01c0.01,0.48 0.1,0.75 0.19,1.01 0.09,0.29 0.18,0.55 0.18,1.11l0 0.14 1.03 0 1.15 0 1.06 0 0 -0.14c0,-0.6 -0.09,-0.9 -0.19,-1.2 -0.09,-0.28 -0.18,-0.55 -0.18,-1.1zm-1.56 2.16c-0.01,-0.51 -0.11,-0.79 -0.19,-1.06 -0.1,-0.28 -0.18,-0.55 -0.18,-1.1 0,-0.55 0.08,-0.82 0.18,-1.11 0.09,-0.29 0.19,-0.59 0.19,-1.19 0,-0.6 -0.1,-0.9 -0.19,-1.19 -0.1,-0.29 -0.18,-0.56 -0.18,-1.11 0,-0.55 0.08,-0.82 0.18,-1.11 0.08,-0.26 0.18,-0.54 0.19,-1.05l0.58 0c-0.01,0.46 -0.09,0.71 -0.18,0.97 -0.09,0.29 -0.19,0.59 -0.19,1.19 0,0.6 0.1,0.9 0.19,1.19 0.1,0.29 0.18,0.56 0.18,1.11 0,0.55 -0.08,0.82 -0.18,1.1 -0.09,0.3 -0.19,0.6 -0.19,1.2 0,0.59 0.1,0.9 0.19,1.19 0.09,0.26 0.17,0.51 0.18,0.97l-0.58 0zm0.86 0c-0.01,-0.51 -0.1,-0.79 -0.19,-1.06 -0.09,-0.28 -0.18,-0.55 -0.18,-1.1 0,-0.55 0.09,-0.82 0.18,-1.11 0.1,-0.29 0.2,-0.59 0.2,-1.19 0,-0.6 -0.1,-0.9 -0.2,-1.19 -0.09,-0.29 -0.18,-0.56 -0.18,-1.11 0,-0.55 0.09,-0.82 0.18,-1.11 0.09,-0.26 0.18,-0.54 0.19,-1.05l0.79 0c-0.01,0.46 -0.09,0.71 -0.18,0.97 -0.09,0.29 -0.19,0.59 -0.19,1.19 0,0.6 0.1,0.9 0.19,1.19 0.1,0.29 0.18,0.56 0.18,1.11 0,0.55 -0.08,0.82 -0.18,1.1 -0.09,0.3 -0.19,0.6 -0.19,1.2 0,0.59 0.1,0.9 0.19,1.19 0.09,0.26 0.17,0.51 0.18,0.97l-0.79 0z"/>
 </g>
</svg>
