<?xml version="1.0" encoding="UTF-8"?>
<!DOCTYPE svg PUBLIC "-//W3C//DTD SVG 1.1//EN" "http://www.w3.org/Graphics/SVG/1.1/DTD/svg11.dtd">
<!-- Creator: CorelDRAW 2018 (64 Bit Versão de avaliação) -->
<svg xmlns="http://www.w3.org/2000/svg" xml:space="preserve" width="130px" height="130px" version="1.1" style="shape-rendering:geometricPrecision; text-rendering:geometricPrecision; image-rendering:optimizeQuality; fill-rule:evenodd; clip-rule:evenodd"
viewBox="0 0 57.02 57.02"
 xmlns:xlink="http://www.w3.org/1999/xlink">
 <defs>
  <style type="text/css">
   <![CDATA[
    .str0 {stroke:#E6E6E6;stroke-width:1.03;stroke-miterlimit:22.9256}
    .fil1 {fill:#4D4D4D}
    .fil0 {fill:white}
   ]]>
  </style>
 </defs>
 <g id="Camada_x0020_1">
  <metadata id="CorelCorpID_0Corel-Layer"/>
  <circle class="fil0 str0" cx="28.51" cy="28.51" r="27.99"/>
  <path class="fil1" d="M41.59 23.68l-0.05 -0.48 -1.25 0c-0.17,-2.14 -1.37,-4 -3.1,-5.08 0.17,-0.38 0.27,-0.79 0.27,-1.21 0,-1.62 -1.32,-2.93 -2.93,-2.93 -0.36,0 -0.71,0.07 -1.03,0.19 -1.26,-1.45 -3.05,-2.28 -4.99,-2.28 -3.17,0 -5.89,2.28 -6.48,5.36 -2.86,0.56 -5.06,2.98 -5.3,5.95l-1.25 0 -0.04 0.48c-0.06,0.59 -0.08,1.17 -0.08,1.72 0,3.96 1.31,7.71 3.69,10.55 2.1,2.51 4.83,4.07 7.79,4.5l0 3.63 -4.22 0 0 1.05 4.22 0 3.34 0 4.23 0 0 -1.05 -4.23 0 0 -3.63c2.97,-0.43 5.69,-1.99 7.8,-4.5 2.38,-2.84 3.69,-6.59 3.69,-10.55 0,-0.55 -0.03,-1.13 -0.08,-1.72zm-8.93 -6.89c0.01,-0.01 0.01,-0.02 0.01,-0.03 0,-0.03 0,-0.06 0.01,-0.09 0,-0.01 0,-0.01 0,-0.02 0.04,-0.32 0.17,-0.63 0.37,-0.88 0,-0.01 0,-0.01 0.01,-0.02 0.02,-0.02 0.04,-0.05 0.06,-0.07 0.01,-0.01 0.01,-0.01 0.02,-0.02 0.02,-0.03 0.05,-0.05 0.07,-0.08 0.01,0 0.01,-0.01 0.01,-0.01 0.03,-0.02 0.05,-0.04 0.07,-0.06 0.01,-0.01 0.02,-0.02 0.03,-0.03 0.02,-0.02 0.04,-0.03 0.06,-0.05 0.01,-0.01 0.02,-0.01 0.03,-0.02 0.03,-0.02 0.05,-0.04 0.08,-0.06 0.01,-0.01 0.02,-0.01 0.03,-0.02 0.02,-0.01 0.05,-0.03 0.07,-0.04 0.28,-0.16 0.6,-0.26 0.94,-0.26 1.04,0 1.88,0.84 1.88,1.88 0,0.25 -0.06,0.5 -0.15,0.73 -0.39,-0.17 -0.79,-0.29 -1.2,-0.38l0 -0.01 -0.33 -0.05c-0.26,-0.04 -0.52,-0.06 -0.78,-0.07 0,0 0,0 0,0 -0.01,0 -0.01,0 -0.01,0l0 0c0,0 -0.01,0 -0.01,0 -0.01,0 -0.02,0 -0.04,0 0,0 0,0 0,0 -0.06,0 -0.12,0 -0.17,0 -0.07,0 -0.14,0 -0.21,0 -0.02,0 -0.03,0 -0.04,0 -0.02,0 -0.03,0 -0.05,0 0,0 -0.01,0 -0.02,0 -0.01,0 -0.02,0.01 -0.03,0.01 -0.05,0 -0.1,0 -0.15,0.01 -0.02,0 -0.03,0 -0.05,0 -0.07,0.01 -0.15,0.01 -0.22,0.02 -0.01,0 -0.01,0 -0.01,0 -0.09,0.01 -0.17,0.02 -0.26,0.04 0,-0.01 0,-0.01 0,-0.01 0,-0.05 -0.01,-0.09 -0.01,-0.13 0,-0.01 0,-0.02 0,-0.03 -0.01,-0.04 -0.01,-0.09 -0.01,-0.13 0,-0.04 0,-0.08 0,-0.12zm0 1.49c0.03,-0.01 0.07,-0.02 0.11,-0.02 0.02,-0.01 0.04,-0.01 0.07,-0.01l0 0c0.03,-0.01 0.07,-0.01 0.1,-0.02 0.03,0 0.05,-0.01 0.08,-0.01 0.03,0 0.06,-0.01 0.09,-0.01l0 0c0.03,0 0.06,-0.01 0.08,-0.01 0.03,0 0.07,0 0.1,-0.01 0.02,0 0.05,0 0.07,0 0.01,0 0.01,0 0.01,0 0.03,0 0.07,-0.01 0.11,-0.01 0.02,0 0.04,0 0.06,0 0.06,0 0.12,0 0.18,0 0.07,0 0.14,0 0.21,0 0.08,0 0.17,0.01 0.25,0.02 0,0 0,0 0,0 0.1,0.01 0.19,0.02 0.28,0.03l0.09 0.01c0.42,0.06 0.82,0.17 1.21,0.32 0,0.01 0,0.01 0,0.01 0.07,0.03 0.14,0.06 0.22,0.09 0.01,0 0.02,0.01 0.03,0.01 0.07,0.04 0.14,0.07 0.2,0.1 0.01,0 0.01,0 0.01,0.01 1.66,0.84 2.84,2.49 3.02,4.42l-9.36 0c0,0 0,-0.01 0,-0.01 -0.02,-0.28 -0.06,-0.56 -0.12,-0.83 0,0 0,0 0,-0.01 -0.01,-0.05 -0.02,-0.1 -0.03,-0.15 0,-0.01 -0.01,-0.02 -0.01,-0.02 -0.01,-0.05 -0.02,-0.09 -0.03,-0.14 -0.01,-0.01 -0.01,-0.03 -0.01,-0.04 -0.01,-0.04 -0.02,-0.08 -0.04,-0.12 0,-0.02 -0.01,-0.04 -0.01,-0.06 -0.01,-0.03 -0.02,-0.06 -0.03,-0.09 -0.01,-0.03 -0.02,-0.05 -0.03,-0.08 -0.01,-0.02 -0.01,-0.04 -0.02,-0.06 -0.01,-0.04 -0.03,-0.08 -0.04,-0.12 0,-0.01 -0.01,-0.02 -0.01,-0.03 -0.11,-0.28 -0.23,-0.56 -0.38,-0.83 0.8,-1.17 2.03,-2.01 3.41,-2.31 0.02,0 0.03,0 0.05,-0.01l0.02 0c0.02,-0.01 0.04,-0.01 0.06,-0.01zm-4.15 -5.34c1.57,0 3.03,0.64 4.08,1.79 -0.01,0 -0.01,0.01 -0.02,0.01 0,0.01 -0.01,0.01 -0.01,0.02 -0.08,0.07 -0.16,0.14 -0.23,0.22 -0.02,0.03 -0.04,0.05 -0.06,0.07 0,0.01 -0.01,0.02 -0.02,0.04 -0.02,0.02 -0.05,0.05 -0.07,0.08 -0.01,0.01 -0.01,0.02 -0.02,0.03 -0.02,0.03 -0.04,0.07 -0.07,0.1 0,0.01 0,0.01 -0.01,0.01 -0.02,0.04 -0.05,0.08 -0.07,0.12 0,0.01 0,0.01 0,0.01 -0.2,0.34 -0.34,0.73 -0.38,1.15 0,0 0,0 0,0 -0.01,0.05 -0.01,0.1 -0.01,0.14 0,0.01 0,0.01 0,0.02 -0.01,0.05 -0.01,0.1 -0.01,0.16 0,0.04 0,0.09 0,0.14 0.01,0.01 0.01,0.03 0.01,0.05 0,0.03 0,0.06 0,0.09 0.01,0.02 0.01,0.03 0.01,0.05 0,0.03 0.01,0.06 0.01,0.08 0,0.02 0.01,0.04 0.01,0.06 0,0.02 0.01,0.05 0.01,0.07 -1.24,0.4 -2.33,1.17 -3.15,2.22 -1.1,-1.43 -2.73,-2.33 -4.52,-2.51 -0.01,0 -0.01,0 -0.02,0 -0.04,-0.01 -0.09,-0.01 -0.14,-0.01 -0.02,0 -0.04,-0.01 -0.05,-0.01 -0.04,0 -0.08,0 -0.12,0 -0.03,-0.01 -0.06,-0.01 -0.09,-0.01 -0.03,0 -0.05,0 -0.08,0 -0.06,0 -0.12,0 -0.18,0 -0.06,0 -0.12,0 -0.18,0 0.61,-2.43 2.82,-4.19 5.38,-4.19zm-6.04 5.3l0.09 -0.01c0.11,-0.02 0.22,-0.03 0.33,-0.04 0.03,0 0.06,0 0.08,0 0.04,0 0.08,-0.01 0.11,-0.01 0.08,0 0.15,0 0.23,0 0.08,0 0.16,0 0.24,0 0.02,0 0.03,0 0.05,0 2.3,0.13 4.23,1.65 4.95,3.74 0.01,0.01 0.01,0.02 0.02,0.03 0.02,0.07 0.04,0.13 0.05,0.19 0.01,0.02 0.02,0.04 0.02,0.06 0.02,0.07 0.04,0.14 0.06,0.21 0,0.02 0.01,0.04 0.01,0.05 0.01,0.06 0.03,0.12 0.04,0.18 0,0.03 0.01,0.06 0.01,0.09 0.01,0.05 0.02,0.1 0.03,0.15 0,0.03 0.01,0.05 0.01,0.08 0.01,0.07 0.02,0.14 0.03,0.22 0,0.01 0,0.01 0,0.02l-11.05 0c0.24,-2.54 2.2,-4.58 4.69,-4.96zm6.66 25.84l-1.24 0 0 -3.53c0.1,0.01 0.21,0.01 0.31,0.01 0.05,0 0.1,0 0.16,0 0.05,0.01 0.1,0.01 0.15,0.01 0.05,0 0.11,0 0.16,-0.01 0.05,0 0.1,0 0.15,0 0.11,0 0.21,0 0.31,-0.01l0 3.53 0 0zm11.48 -18.47l-13.25 0 0 1.05 13.21 0c-0.25,3.24 -1.43,6.26 -3.4,8.61 -2,2.4 -4.61,3.85 -7.43,4.18l-0.08 0c-0.02,0.01 -0.05,0.01 -0.07,0.01 -0.08,0.01 -0.17,0.02 -0.26,0.02 0,0 -0.01,0.01 -0.02,0.01 -0.08,0 -0.16,0.01 -0.25,0.01 -0.02,0 -0.04,0 -0.06,0.01 -0.07,0 -0.14,0 -0.21,0 -0.09,0.01 -0.18,0.01 -0.28,0.01 -0.09,0 -0.19,0 -0.28,-0.01 -0.07,0 -0.14,0 -0.2,0 -0.03,-0.01 -0.05,-0.01 -0.07,-0.01 -0.08,0 -0.17,-0.01 -0.25,-0.01 -0.01,0 -0.01,-0.01 -0.02,-0.01 -0.09,0 -0.17,-0.01 -0.26,-0.02 -0.02,0 -0.05,0 -0.08,-0.01l-0.07 0c-2.82,-0.33 -5.42,-1.78 -7.43,-4.18 -2.22,-2.65 -3.44,-6.15 -3.44,-9.87 0,-0.37 0.01,-0.76 0.04,-1.15l0.26 0 12.15 0 1.05 0 10.4 0 0.27 0c0.02,0.39 0.04,0.78 0.04,1.15 0,0.07 -0.01,0.14 -0.01,0.21z"/>
 </g>
</svg>
