<?xml version="1.0" encoding="UTF-8"?>
<!DOCTYPE svg PUBLIC "-//W3C//DTD SVG 1.1//EN" "http://www.w3.org/Graphics/SVG/1.1/DTD/svg11.dtd">
<!-- Creator: CorelDRAW 2018 (64 Bit Versão de avaliação) -->
<svg xmlns="http://www.w3.org/2000/svg" xml:space="preserve" width="130px" height="130px" version="1.1" style="shape-rendering:geometricPrecision; text-rendering:geometricPrecision; image-rendering:optimizeQuality; fill-rule:evenodd; clip-rule:evenodd"
viewBox="0 0 431.02 431.02"
 xmlns:xlink="http://www.w3.org/1999/xlink">
 <defs>
  <style type="text/css">
   <![CDATA[
    .str0 {stroke:#E6E6E6;stroke-width:7.81;stroke-miterlimit:22.9256}
    .fil1 {fill:#4D4D4D}
    .fil0 {fill:white}
   ]]>
  </style>
 </defs>
 <g id="Camada_x0020_1">
  <metadata id="CorelCorpID_0Corel-Layer"/>
  <circle class="fil0 str0" cx="215.51" cy="215.51" r="211.6"/>
  <path class="fil1" d="M302.97 153.04l-2.07 -2.07 40.25 -46.74 -14.36 -14.36 -46.74 40.25 -2.07 -2.07c-5.66,-5.66 -13.18,-8.78 -21.18,-8.78 -6.74,0 -13.15,2.22 -18.38,6.3l-6.45 -6.45 -142.1 142.1 79.93 79.93 142.09 -142.1 -6.45 -6.45c9.14,-11.74 8.32,-28.77 -2.47,-39.56zm23.44 -53l4.57 4.57 -35.37 41.07 -10.27 -10.28 41.07 -35.36zm-31.35 92.72l0 0 6.29 6.29 -131.55 131.55 -69.38 -69.38 5.27 -5.27 54.44 54.43 5.27 -5.27 -54.43 -54.44 121 -121 3.65 3.65 0 0 16.3 16.3 5.27 -5.27 -13.44 -13.44c3.79,-2.71 8.31,-4.18 13.05,-4.18 6.01,0 11.66,2.34 15.91,6.59l1.67 1.68 2.29 2.29 21.03 21.02c7.87,7.87 8.67,20.18 2.41,28.95l-35.88 -35.88 -5.28 5.27 36.11 36.11z"/>
 </g>
</svg>
