<?xml version="1.0" encoding="UTF-8"?>
<!DOCTYPE svg PUBLIC "-//W3C//DTD SVG 1.1//EN" "http://www.w3.org/Graphics/SVG/1.1/DTD/svg11.dtd">
<!-- Creator: CorelDRAW 2018 (64 Bit Versão de avaliação) -->
<svg xmlns="http://www.w3.org/2000/svg" xml:space="preserve" width="130px" height="130px" version="1.1" style="shape-rendering:geometricPrecision; text-rendering:geometricPrecision; image-rendering:optimizeQuality; fill-rule:evenodd; clip-rule:evenodd"
viewBox="0 0 16.95 16.95"
 xmlns:xlink="http://www.w3.org/1999/xlink">
 <defs>
  <style type="text/css">
   <![CDATA[
    .str0 {stroke:#E6E6E6;stroke-width:0.31;stroke-miterlimit:22.9256}
    .fil1 {fill:#4D4D4D}
    .fil0 {fill:white}
   ]]>
  </style>
 </defs>
 <g id="Camada_x0020_1">
  <metadata id="CorelCorpID_0Corel-Layer"/>
  <circle class="fil0 str0" cx="8.48" cy="8.48" r="8.32"/>
  <path class="fil1" d="M3.76 11.75l0 0.83c0,0.46 0.38,0.84 0.84,0.84l6.39 0 0 -0.3 -6.39 0c-0.3,0 -0.54,-0.24 -0.54,-0.54l0 -0.53 8.83 0 0 0.53c0,0.3 -0.24,0.54 -0.54,0.54l-0.51 0 0 0.3 0.51 0c0.47,0 0.84,-0.38 0.84,-0.84l0 -0.83 -0.14 0 0.09 -0.26c0.03,-0.09 0.05,-0.18 0.05,-0.28 0,-0.2 -0.08,-0.4 -0.21,-0.55l-0.12 -0.13 0.12 -0.13c0.13,-0.15 0.21,-0.35 0.21,-0.55 0,-0.1 -0.02,-0.19 -0.05,-0.28l-0.09 -0.26 0.14 0 0 -0.15c0,-0.48 -0.16,-0.92 -0.42,-1.33 -0.28,-0.42 -0.66,-0.77 -1.08,-1.05 -0.83,-0.57 -1.88,-0.89 -2.88,-0.95l-0.18 -0.01 0 -0.61 1.37 0 0 -1.68 -1.67 0 0 2.29 -0.18 0.01c-1.01,0.06 -2.05,0.38 -2.89,0.95 -0.42,0.28 -0.8,0.63 -1.08,1.05 -0.26,0.41 -0.42,0.85 -0.42,1.33l0 0.15 0.14 0 -0.09 0.26c-0.03,0.09 -0.05,0.18 -0.05,0.28 0,0.2 0.08,0.4 0.22,0.55l0.11 0.13 -0.11 0.13c-0.14,0.15 -0.22,0.35 -0.22,0.55 0,0.1 0.02,0.19 0.05,0.28l0.09 0.26 -0.14 0zm4.87 -7.91l1.06 0 0 1.06 -1.06 0 0 -1.06zm-3.2 3.19c0.88,-0.59 1.99,-0.91 3.05,-0.91 1.05,0 2.17,0.32 3.04,0.91 0.62,0.41 1.18,1 1.33,1.75l0.05 0.23 -6.84 0 0 0.3 6.29 0c0.3,0 0.54,0.24 0.54,0.54 0,0.29 -0.24,0.53 -0.54,0.53 -0.37,0 -0.69,0.05 -1.05,0.12 -0.34,0.06 -0.65,0.11 -1,0.11 -0.32,0 -0.57,-0.04 -0.88,-0.11 -0.33,-0.08 -0.6,-0.12 -0.94,-0.12 -0.35,0 -0.62,0.04 -0.95,0.12 -0.31,0.07 -0.56,0.11 -0.88,0.11 -0.35,0 -0.65,-0.05 -1,-0.11 -0.36,-0.07 -0.68,-0.12 -1.05,-0.12 -0.3,0 -0.54,-0.24 -0.54,-0.53 0,-0.3 0.24,-0.54 0.54,-0.54l0.62 0 0 -0.3 -1.16 0 0.04 -0.23c0.15,-0.75 0.72,-1.34 1.33,-1.75zm6.92 4.72l-7.75 0c-0.3,0 -0.54,-0.24 -0.54,-0.54 0,-0.29 0.24,-0.53 0.54,-0.53 0.35,0 0.65,0.05 1,0.11 0.36,0.07 0.68,0.12 1.05,0.12 0.34,0 0.62,-0.04 0.95,-0.12 0.31,-0.07 0.56,-0.11 0.88,-0.11 0.32,0 0.57,0.04 0.87,0.11 0.34,0.08 0.61,0.12 0.95,0.12 0.37,0 0.69,-0.05 1.06,-0.12 0.34,-0.06 0.64,-0.11 0.99,-0.11 0.3,0 0.54,0.24 0.54,0.53 0,0.3 -0.24,0.54 -0.54,0.54zm-5.44 -3.89l0.21 -0.21 -0.21 -0.22 -0.22 0.22 0.22 0.21zm3.14 0l0.21 -0.21 -0.21 -0.22 -0.22 0.22 0.22 0.21zm-1.55 -0.51l0.22 -0.21 -0.22 -0.22 -0.21 0.22 0.21 0.21z"/>
 </g>
</svg>
