<?xml version="1.0" encoding="UTF-8"?>
<!DOCTYPE svg PUBLIC "-//W3C//DTD SVG 1.1//EN" "http://www.w3.org/Graphics/SVG/1.1/DTD/svg11.dtd">
<!-- Creator: CorelDRAW 2018 (64 Bit Versão de avaliação) -->
<svg xmlns="http://www.w3.org/2000/svg" xml:space="preserve" width="130px" height="130px" version="1.1" style="shape-rendering:geometricPrecision; text-rendering:geometricPrecision; image-rendering:optimizeQuality; fill-rule:evenodd; clip-rule:evenodd"
viewBox="0 0 23.79 23.79"
 xmlns:xlink="http://www.w3.org/1999/xlink">
 <defs>
  <style type="text/css">
   <![CDATA[
    .str0 {stroke:#E6E6E6;stroke-width:0.43;stroke-miterlimit:22.9256}
    .fil1 {fill:#4D4D4D}
    .fil0 {fill:white}
   ]]>
  </style>
 </defs>
 <g id="Camada_x0020_1">
  <metadata id="CorelCorpID_0Corel-Layer"/>
  <circle class="fil0 str0" cx="11.9" cy="11.9" r="11.68"/>
  <path class="fil1" d="M15.66 9.51l0 -1.02 -8.06 0 0 1.02 0.3 0 1.19 0 0 0.45 -0.71 0 0.65 8.43 3.45 0 0 0.44 -3.49 0c-0.21,0 -0.38,-0.16 -0.4,-0.37l-0.65 -8.5 -0.47 0c-0.01,0 -0.01,0 -0.01,0 -0.17,0 -0.31,-0.14 -0.31,-0.31l0 -1.3c0,-0.17 0.14,-0.3 0.31,-0.3 0,0 0,0 0.01,0l3.94 0 0.43 -1.47c0.02,-0.07 0.04,-0.12 0.05,-0.18 0.16,-0.45 0.21,-0.44 0.74,-0.67l1.7 -0.77 0.25 0.4c-0.22,0.1 -2.07,0.89 -2.13,0.96 -0.05,0.05 -0.06,0.13 -0.09,0.2l-0.47 1.53 3.9 0c0,0 0,0 0.01,0 0.17,0 0.3,0.13 0.31,0.3l0 1.3c-0.01,0.17 -0.14,0.31 -0.31,0.31 -0.01,0 -0.01,0 -0.01,0l-0.47 0 -0.65 8.5c-0.02,0.21 -0.19,0.37 -0.4,0.37l-0.6 0 0 -0.44 0.56 0 0.65 -8.43 -4.96 0 0 -0.45 5.44 0 0.3 0z"/>
 </g>
</svg>
